<?xml version="1.0" encoding="UTF-8"?>
<svg id="svg1" xmlns="http://www.w3.org/2000/svg" width="6.7in" height="6.7in" xmlns:svg="http://www.w3.org/2000/svg" xmlns:rdf="http://www.w3.org/1999/02/22-rdf-syntax-ns#" xmlns:dc="http://purl.org/dc/elements/1.1/" xmlns:cc="http://creativecommons.org/ns#" version="1.1" viewBox="0 0 480.2 480">
  <defs>
    <style>
      .st0 {
        fill: #616161;
        fill-rule: evenodd;
      }

      .st1 {
        fill: none;
        stroke: #5bff2e;
        stroke-linecap: round;
        stroke-linejoin: round;
        stroke-width: 18.3px;
      }

      .st2 {
        fill: #abadb0;
      }
    </style>
  </defs>
  <g>
    <path class="st2" d="M22.3-1.7h435.6c10.5,4.2,19.2,14.5,22.2,28.2v327.1c-3.8,13.8-12.4,23.7-23.3,28.2h-164.7l-.5,59.8c1.8,3.3,55.4-1.8,63.4.7,13.1,4.1,12.7,29.7,0,35.7H125.3c-11.6-3.3-13.6-28.9-3.3-34.4s64.6,2.3,66.6-3.4l-.5-58.4H23.4c-11.6-4.2-19.7-13.4-23.3-28.2V25.1C2.9,10.2,10.9,2,22.3-1.7Z"/>
    <polygon class="st2" points="37.5 46.4 441.7 46.4 443.3 328.9 439.5 333.7 39.7 333.7 35.9 326.1 37.5 46.4"/>
  </g>
  <rect x="33.7" y="46.5" width="410.7" height="288.3"/>
  <path id="path1" class="st0" d="M189.5,68h165.3v82.6c0,2.3-1.1,4.5-3,5.9l-22.5,16.3c-1.9,1.4-3,3.5-3,5.9v6c0,2.3,1.1,4.5,3,5.8l19.6,14.2c2.5,1.8,3.6,5.1,2.6,8.1l-6.7,20.6c-1,3-3.7,5-6.9,5h-24.2c-2.3,0-4.5,1.1-5.8,3l-3.6,4.9c-1.4,1.9-1.7,4.3-1,6.5l7.5,23c1,3,0,6.2-2.6,8.1l-17.6,12.8c-2.5,1.8-6,1.8-8.5,0l-19.6-14.2c-1.9-1.4-4.3-1.7-6.5-1l-5.8,1.9c-2.2.7-3.9,2.4-4.6,4.6l-7.5,23c-1,3-3.7,5-6.9,5h-83.2V109.3l41.3-41.3ZM313.4,150.7v-41.3h-124v165.3h41.3v-51.7s41.3,0,41.3,0v-41.3h-41.3v-31h82.7Z"/>
  <polyline class="st1" points="417.3 192.8 316.5 192.3 289.8 127.5 250.7 269.4 200.1 115.2 168.7 193.7 64 194.5"/>
  <metadata
     id="metadata1">
    <rdf:RDF>
      <cc:Work
         rdf:about="">
        <dc:title>FreeCAD Telemetry Logo</dc:title>
        <dc:date>2025-02-14</dc:date>
        <dc:creator>
          <cc:Agent>
            <dc:title>Chris Hennes (chennes)</dc:title>
          </cc:Agent>
        </dc:creator>
        <dc:publisher>
          <cc:Agent>
            <dc:title>The FreeCAD project association AISBL (FPA)</dc:title>
          </cc:Agent>
        </dc:publisher>
        <dc:rights>
          <cc:Agent>
            <dc:title>Copyright (c) 2025 The FreeCAD Project Association AISBL.</dc:title>
          </cc:Agent>
        </dc:rights>
        <cc:license
           rdf:resource="http://creativecommons.org/licenses/by/4.0/" />
      </cc:Work>
      <cc:License
         rdf:about="http://creativecommons.org/licenses/by/4.0/">
        <cc:permits
           rdf:resource="http://creativecommons.org/ns#Reproduction" />
        <cc:permits
           rdf:resource="http://creativecommons.org/ns#Distribution" />
        <cc:requires
           rdf:resource="http://creativecommons.org/ns#Notice" />
        <cc:requires
           rdf:resource="http://creativecommons.org/ns#Attribution" />
        <cc:permits
           rdf:resource="http://creativecommons.org/ns#DerivativeWorks" />
      </cc:License>
    </rdf:RDF>
  </metadata>
</svg>
